<svg width="58" height="25" viewBox="0 0 58 25" fill="none" xmlns="http://www.w3.org/2000/svg">
<path d="M47.7319 8.2276C49.8239 8.2276 51.8773 8.2276 53.9693 8.2276C54.5117 8.2276 54.5117 8.2276 54.5117 8.77613C54.5117 11.7539 54.5117 14.7316 54.5117 17.7093C54.5117 17.9052 54.5117 18.062 54.473 18.2579C54.3568 19.2374 53.8531 19.7076 52.8846 19.7859C52.6521 19.8251 52.4197 19.8251 52.1872 19.8251C51.8385 19.7859 51.7223 19.9426 51.7223 20.2953C51.7223 21.1181 51.7223 21.9409 51.7223 22.7637C51.7223 22.9987 51.6836 23.273 51.6448 23.5081C51.4898 24.2525 50.87 24.8011 50.1726 24.7619C49.3978 24.7227 48.7392 24.0958 48.7004 23.273C48.6617 22.3327 48.7004 21.3923 48.7004 20.452C48.7004 19.8643 48.7004 19.8643 48.1193 19.8643C47.7706 19.8643 47.4219 19.8643 47.0732 19.8643C46.7246 19.8643 46.6471 19.9818 46.6471 20.2953C46.6471 21.1964 46.6471 22.0976 46.6471 23.0379C46.6471 23.9783 46.1822 24.5268 45.2911 24.7227C44.7487 24.8402 43.9351 24.3309 43.7802 23.704C43.7027 23.4297 43.6639 23.1163 43.6639 22.842C43.6639 21.98 43.6639 21.1181 43.6639 20.2169C43.6639 19.9035 43.5477 19.7859 43.2378 19.7859C42.8116 19.7859 42.3467 19.7859 41.9593 19.6684C41.2619 19.4725 40.9133 18.8456 40.9133 17.9836C40.9133 16.1813 40.9133 14.3398 40.9133 12.5375C40.9133 11.2445 40.9133 9.99073 40.9133 8.69776C40.9133 8.30596 41.0295 8.18842 41.4169 8.18842C43.4702 8.2276 45.601 8.2276 47.7319 8.2276Z" fill="white"/>
<path d="M43.5094 0C43.6256 0.156719 43.7418 0.274259 43.8581 0.430978C44.0905 0.861956 44.323 1.29293 44.5554 1.72391C44.6717 1.91981 44.7879 1.95899 44.9816 1.88063C46.7637 1.21457 48.5459 1.21457 50.328 1.88063C50.5605 1.95899 50.6767 1.91981 50.7929 1.68473C51.0254 1.25375 51.2578 0.822776 51.4903 0.391798C51.5678 0.235079 51.7227 0.117539 51.8389 0C51.8777 0.0391798 51.9552 0.0783596 51.9939 0.0783596C51.9552 0.235079 51.9164 0.430978 51.8389 0.548517C51.6452 0.979495 51.4128 1.41047 51.1803 1.80227C51.0254 2.03735 51.0641 2.15489 51.2966 2.31161C52.575 3.0952 53.5436 4.11388 54.0472 5.52435C54.241 6.07287 54.3184 6.69975 54.4347 7.28744C54.4734 7.52252 54.3572 7.64006 54.1247 7.60088C54.0472 7.60088 54.0085 7.60088 53.931 7.60088C49.7469 7.60088 45.5627 7.60088 41.3398 7.60088C40.7587 7.60088 40.7587 7.60088 40.8362 7.01319C41.0686 4.93666 42.1922 3.40864 43.9356 2.31161C44.2067 2.15489 44.2842 1.99817 44.0905 1.72391C43.8581 1.33211 43.6256 0.940315 43.4319 0.509337C43.3544 0.352618 43.3544 0.195899 43.3157 0.0391798C43.4319 0.0391798 43.4706 0 43.5094 0ZM45.1366 4.54486C45.1366 4.23142 44.8654 3.95716 44.5554 3.99634C44.2455 3.99634 44.013 4.2706 44.013 4.58404C44.013 4.89748 44.2842 5.17173 44.5942 5.17173C44.8654 5.17173 45.1366 4.8583 45.1366 4.54486ZM50.7929 3.99634C50.483 3.99634 50.2118 4.2706 50.2118 4.58404C50.2118 4.8583 50.5217 5.17173 50.7929 5.17173C51.0641 5.17173 51.3353 4.8583 51.3353 4.54486C51.3353 4.2706 51.0641 3.99634 50.7929 3.99634Z" fill="white"/>
<path d="M55.0554 12.6552C55.0554 11.5581 55.0554 10.4219 55.0554 9.32482C55.0554 8.77629 55.3266 8.38449 55.7915 8.11022C56.6826 7.60087 57.7674 8.11022 57.9611 9.12892C57.9998 9.32482 57.9998 9.55991 57.9998 9.75581C57.9998 11.6757 57.9998 13.5955 57.9998 15.5154C57.9998 15.7896 57.9611 16.1031 57.8836 16.3774C57.6899 17.0434 56.9925 17.4352 56.2564 17.3177C55.5591 17.2001 55.0167 16.6908 55.0167 15.9855C55.0167 14.8885 55.0554 13.7522 55.0554 12.6552Z" fill="white"/>
<path d="M40.2913 12.6173C40.2913 13.7536 40.2913 14.8506 40.2913 15.9869C40.2913 16.5746 39.9814 17.0055 39.4777 17.2406C38.9741 17.4757 38.4704 17.4365 38.0055 17.1231C37.6569 16.888 37.4632 16.5746 37.3857 16.1436V16.1044C37.3857 13.7928 37.3469 11.4811 37.3857 9.20864C37.3857 8.42504 38.083 7.91569 38.8579 7.95487C39.6714 7.99405 40.2526 8.54258 40.2913 9.32618C40.3301 10.4232 40.2913 11.5203 40.2913 12.6173Z" fill="white"/>
<path d="M6.13526 1.03851C2.75064 1.03851 0 3.83106 0 7.26724V17.6485C0 21.0846 2.75064 23.8772 6.13526 23.8772H16.3607C19.7453 23.8772 22.496 21.0846 22.496 17.6485V7.26724C22.496 3.83106 19.7453 1.03851 16.3607 1.03851H6.13526ZM4.40672 8.86092C4.76461 8.86092 5.03084 9.12053 5.03084 9.46311C5.03084 9.8005 4.76461 10.0602 4.40672 10.0602C4.04372 10.0602 3.77862 9.8005 3.77862 9.46311C3.77862 9.12053 4.04372 8.86092 4.40672 8.86092ZM9.73414 9.15695C11.6003 9.15695 12.7508 10.4799 12.7508 12.6028C12.7508 14.7206 11.6105 16.0548 9.73414 16.0548C7.84754 16.0548 6.70246 14.7258 6.70246 12.6028C6.70246 10.4747 7.87311 9.15695 9.73414 9.15695ZM16.3457 9.15695C17.6597 9.15695 18.62 9.93485 18.6814 11.0456H17.6998C17.6027 10.4383 17.0864 10.0602 16.3297 10.0602C15.5322 10.0602 15.0056 10.4436 15.0056 11.0406C15.0056 11.5077 15.3432 11.7779 16.1919 11.9804L16.9029 12.1568C18.2373 12.4734 18.7842 13.0186 18.7842 14.01C18.7842 15.2713 17.8227 16.0598 16.2838 16.0598C14.8471 16.0598 13.8809 15.3079 13.8093 14.1296H14.8069C14.8938 14.7525 15.4967 15.1515 16.3607 15.1515C17.1685 15.1515 17.7617 14.7263 17.7617 14.1397C17.7617 13.6414 17.3884 13.3407 16.5295 13.133L15.6907 12.9303C14.5198 12.65 13.9831 12.0739 13.9831 11.1085C13.9831 9.93542 14.9295 9.15695 16.3457 9.15695ZM9.73414 10.1069C8.5122 10.1069 7.73598 11.0768 7.73598 12.6028C7.73598 14.1237 8.48663 15.1049 9.73414 15.1049C10.9663 15.1049 11.7233 14.1237 11.7233 12.6028C11.7233 11.0768 10.9663 10.1069 9.73414 10.1069ZM3.92641 10.9321H4.88804V15.8997H3.92641V10.9321Z" fill="white"/>
</svg>
