<svg width="30" height="30" viewBox="0 0 30 30" fill="none" xmlns="http://www.w3.org/2000/svg">
<g clip-path="url(#clip0)">
<rect x="30" y="30" width="30" height="30" rx="15" transform="rotate(-180 30 30)" fill="#F8F4FF"/>
<path d="M21.1943 11.2201C21.4301 10.9724 21.7484 10.8334 22.0801 10.8334C22.4119 10.8334 22.7302 10.9724 22.9659 11.2201C23.0823 11.3418 23.1748 11.4868 23.2378 11.6467C23.3009 11.8066 23.3334 11.9783 23.3334 12.1517C23.3334 12.325 23.3009 12.4967 23.2378 12.6566C23.1748 12.8165 23.0823 12.9616 22.9659 13.0832L15.8868 20.4473C15.6505 20.6947 15.332 20.8334 15.0001 20.8334C14.6682 20.8334 14.3496 20.6947 14.1134 20.4473L7.03422 13.0832C6.91784 12.9616 6.82541 12.8165 6.76232 12.6566C6.69924 12.4967 6.66675 12.325 6.66675 12.1517C6.66675 11.9783 6.69924 11.8066 6.76232 11.6467C6.82541 11.4868 6.91784 11.3418 7.03422 11.2201C7.26996 10.9724 7.58829 10.8334 7.92002 10.8334C8.25176 10.8334 8.57009 10.9724 8.80582 11.2201L15.0028 17.2594L21.1943 11.2201Z" fill="#3489FD"/>
</g>
<defs>
<clipPath id="clip0">
<rect width="30" height="30" fill="white"/>
</clipPath>
</defs>
</svg>
