<svg width="26" height="26" viewBox="0 0 26 26" fill="none" xmlns="http://www.w3.org/2000/svg">
<path fill-rule="evenodd" clip-rule="evenodd" d="M13 26C20.1797 26 26 20.1797 26 13C26 5.8203 20.1797 0 13 0C5.8203 0 0 5.8203 0 13C0 20.1797 5.8203 26 13 26ZM18.733 11.1467C18.9915 9.41624 17.6739 8.48639 15.8728 7.86541L16.4572 5.52047L15.0307 5.16446L14.4617 7.44763C14.087 7.35415 13.7018 7.26556 13.3181 7.17859L13.8911 4.88079L12.4655 4.52478L11.8803 6.86891C11.5698 6.7982 11.265 6.72829 10.9691 6.65433L10.9707 6.64701L9.00293 6.15608L8.62335 7.68009C8.62335 7.68009 9.68162 7.92231 9.65967 7.93775C10.2376 8.08243 10.3424 8.46445 10.3245 8.76762L9.65886 11.4377C9.69869 11.4474 9.7499 11.4613 9.80761 11.4856C9.75965 11.4726 9.70926 11.4604 9.65642 11.4474L8.72332 15.1896C8.65261 15.3643 8.47298 15.6277 8.06902 15.5277C8.08365 15.548 7.03188 15.2692 7.03188 15.2692L6.32311 16.903L8.17956 17.3655C8.525 17.4516 8.86394 17.5427 9.19638 17.628L8.60628 19.999L10.0311 20.355L10.6163 18.0092C11.0057 18.1141 11.3836 18.2124 11.7535 18.3043L11.1707 20.6386L12.5972 20.9946L13.1881 18.6286C15.6216 19.0886 17.4512 18.9033 18.2209 16.7022C18.8419 14.9295 18.1901 13.9078 16.9099 13.2413C17.843 13.0267 18.5453 12.4139 18.733 11.1467ZM15.4721 15.7188C15.0307 17.4907 12.0477 16.5324 11.0805 16.2918L11.864 13.1511C12.8312 13.3925 15.9329 13.8705 15.4721 15.7188ZM15.914 11.1217C15.5117 12.7326 13.0285 11.9141 12.223 11.7142L12.9334 8.8645C13.7389 9.06608 16.3326 9.44078 15.914 11.1217Z" fill="#F7931A"/>
</svg>
