<svg width="57" height="40" viewBox="0 0 57 40" fill="none" xmlns="http://www.w3.org/2000/svg">
<rect x="0.5" y="0.5" width="56" height="39" rx="3.5" fill="white" stroke="#F3F3F3"/>
<path fill-rule="evenodd" clip-rule="evenodd" d="M52.7642 15.2019H50.2809L48.8364 21.4483H48.8389L48.6405 22.3075C48.5019 22.3475 48.3639 22.3835 48.227 22.4116C47.9699 22.4645 47.7042 22.491 47.4299 22.491C47.1098 22.491 46.8584 22.4441 46.6757 22.35C46.4928 22.2561 46.3643 22.124 46.29 21.9535C46.2156 21.7834 46.1872 21.5809 46.2044 21.3457C46.2216 21.1109 46.2644 20.8585 46.333 20.5881L47.0871 17.3464L47.5842 15.197L47.5843 15.1964H45.0473L43.8989 20.183C43.7619 20.782 43.6818 21.3518 43.659 21.892C43.6359 22.4323 43.716 22.911 43.8989 23.3277C44.0816 23.7448 44.3901 24.0739 44.8246 24.3145C45.2587 24.555 45.8701 24.6756 46.6585 24.6756C47.2071 24.6756 47.6812 24.6286 48.0813 24.5346C48.0975 24.5308 48.113 24.5268 48.1288 24.5227L48.1277 24.5274C48.0165 25.0419 47.7914 25.4591 47.4301 25.7848C47.0684 26.1107 46.5317 26.2737 45.8201 26.2737C45.5162 26.2737 45.2402 26.2551 44.9901 26.2195L44.5013 28.3332C44.8319 28.3772 45.1984 28.4 45.6032 28.4C46.3594 28.4 47.0214 28.3111 47.5886 28.134C48.1558 27.9568 48.6422 27.6883 49.0483 27.328C49.4542 26.968 49.7934 26.5162 50.066 25.9736C50.3384 25.4304 50.5581 24.7876 50.7249 24.0444L52.4433 16.6194C52.4412 16.6183 52.4391 16.6176 52.4371 16.6167L52.7642 15.2019Z" fill="#002855"/>
<path fill-rule="evenodd" clip-rule="evenodd" d="M40.5835 17.3484C39.4256 17.3484 39.2045 17.3484 38.73 17.6013C38.3932 17.7808 38.1144 18.0506 37.8695 18.3654C37.6245 18.6803 37.4324 19.0436 37.2933 19.4556C37.1539 19.8679 37.0844 20.297 37.0844 20.7435C37.0844 21.2929 37.1734 21.7281 37.3518 22.0485C37.5297 22.3691 37.8584 22.5292 38.3373 22.5292C38.5934 22.5292 38.8245 22.4778 39.0307 22.3747C39.2366 22.2717 39.4567 22.0999 39.6905 21.8595C39.7127 21.5736 39.749 21.2731 39.7991 20.9581C39.8492 20.6435 39.9127 20.3517 39.9686 20.0881L40.5835 17.3484ZM42.3468 20.5374C42.1907 21.19 42.1462 21.8453 42.213 22.5035C42.28 23.1619 42.525 24.1706 42.7638 24.6756H40.3606C40.067 24.1652 40.0803 23.926 40.0247 23.7655C39.7128 24.029 39.3675 24.2463 38.989 24.418C38.6103 24.5897 38.1871 24.6756 37.7193 24.6756C37.1624 24.6756 36.6862 24.5752 36.2911 24.3751C35.8955 24.1749 35.5726 23.9059 35.3221 23.5681C35.0715 23.2306 34.8903 22.8356 34.7793 22.3834C34.6677 21.9312 34.6121 21.4475 34.6121 20.9324C34.6121 20.1425 34.7483 19.3985 35.0214 18.7003C35.2942 18.0021 35.6729 17.3924 36.1574 16.8715C36.6418 16.3506 37.811 15.2021 39.7296 15.2021C40.5587 15.2021 41.6731 15.202 43.5824 15.202L42.3468 20.5374Z" fill="#002855"/>
<path fill-rule="evenodd" clip-rule="evenodd" d="M27.8166 22.4968C28.0072 22.543 28.2426 22.566 28.523 22.566C28.9603 22.566 29.3581 22.4825 29.7171 22.3154C30.0758 22.1484 30.3814 21.9151 30.6337 21.6152C30.886 21.3157 31.0819 20.9557 31.2223 20.5349C31.3622 20.1143 31.4325 19.6506 31.4325 19.1434C31.4325 18.648 31.3259 18.2272 31.113 17.8815C30.8999 17.5357 30.5263 17.352 29.9994 17.3498C29.631 17.3484 29.0191 17.3484 29.0191 17.3484L27.8166 22.4968ZM33.9215 18.9532C33.9215 19.7946 33.787 20.5639 33.5179 21.2609C33.249 21.9583 32.876 22.5605 32.3996 23.0673C31.9228 23.5746 31.3511 23.9692 30.6841 24.2515C30.017 24.5337 29.291 24.6749 28.5062 24.6749C28.1249 24.6749 27.7436 24.6404 27.3626 24.5712L26.6058 27.6999H24.1168L27.006 15.2022C27.4263 15.2019 29.6499 15.2022 30.3226 15.2022C30.9503 15.2022 31.4914 15.3002 31.9455 15.4961C32.3996 15.6921 32.7722 15.96 33.0639 16.2998C33.3552 16.6399 33.571 17.0375 33.7113 17.4925C33.8513 17.948 33.9215 18.4347 33.9215 18.9532Z" fill="#002855"/>
<path fill-rule="evenodd" clip-rule="evenodd" d="M22.5892 22.4928C22.2692 22.4928 22.0177 22.4461 21.8352 22.3519C21.6521 22.258 21.5236 22.1259 21.4495 21.9555C21.3749 21.7854 21.3466 21.5827 21.3637 21.3477C21.3809 21.1129 21.4237 20.8605 21.4923 20.5901L22.2465 17.3484H25.0747L25.5889 15.199H22.7435L23.3949 12.4681L20.7381 12.891L19.0582 20.1848C18.9212 20.7838 18.8411 21.3538 18.8183 21.8938C18.7952 22.4342 18.8753 22.9129 19.0582 23.3297C19.2409 23.7468 19.5494 24.0757 19.9839 24.3163C20.418 24.5569 21.0294 24.6774 21.818 24.6774C22.3664 24.6774 22.8405 24.6304 23.2406 24.5365C23.2819 24.5268 23.3447 24.5112 23.3854 24.5011L23.9026 22.2774C23.7289 22.3383 23.5544 22.3791 23.3863 22.4136C23.1292 22.4665 22.8635 22.4928 22.5892 22.4928Z" fill="#002855"/>
<path fill-rule="evenodd" clip-rule="evenodd" d="M16.2551 15.1965L14.0627 24.6774H16.5462L18.7386 15.1965H16.2551Z" fill="#002855"/>
<path fill-rule="evenodd" clip-rule="evenodd" d="M18.9958 14.1003L19.3767 12.4534H16.8932L16.5123 14.1003H18.9958Z" fill="#002855"/>
<path fill-rule="evenodd" clip-rule="evenodd" d="M8.57653 22.5611C8.96664 22.5611 9.33465 22.4639 9.6803 22.269C10.0258 22.0742 10.3243 21.8133 10.5752 21.4867C10.826 21.16 11.0238 20.7905 11.1689 20.378C11.3136 19.9654 11.3863 19.5356 11.3863 19.0885C11.3863 18.5385 11.297 18.1087 11.1187 17.7994C10.9402 17.4898 10.5694 17.3484 10.0902 17.3484C9.93397 17.3484 9.77239 17.3639 9.5215 17.4211C9.2706 17.4786 9.05419 17.5976 8.85358 17.7808L7.76308 22.4965C8.0856 22.5545 8.19728 22.5611 8.27548 22.5611C8.3533 22.5611 8.45374 22.5611 8.57653 22.5611ZM10.7507 15.2035C11.286 15.2035 11.7485 15.301 12.139 15.4958C12.5291 15.6907 12.8524 15.9542 13.1089 16.2865C13.3653 16.619 13.5548 17.0084 13.6776 17.4555C13.8001 17.9025 13.8616 18.3838 13.8616 18.8995C13.8616 19.6903 13.7195 20.4381 13.4351 21.1429C13.1508 21.8477 12.7633 22.4609 12.2727 22.9824C11.7819 23.504 11.2023 23.9165 10.5333 24.22C9.86435 24.5236 9.13945 24.6756 8.3591 24.6756C8.25879 24.6756 8.08319 24.6726 7.83229 24.667C7.58139 24.6611 7.29411 24.6354 6.97083 24.5897C6.64742 24.5437 6.30455 24.475 5.94236 24.3833C5.57978 24.2918 5.23704 24.1658 4.91376 24.0052L7.80715 11.5074L10.3996 11.0949L9.37531 15.5242C9.59817 15.4211 9.80838 15.347 10.0316 15.2895C10.2545 15.2322 10.4941 15.2035 10.7507 15.2035Z" fill="#002855"/>
</svg>
