<svg width="18" height="16" viewBox="0 0 18 16" fill="none" xmlns="http://www.w3.org/2000/svg">
<path d="M7.33329 15.5H1.49996C1.27895 15.5 1.06698 15.4122 0.910704 15.2559C0.754423 15.0996 0.666626 14.8877 0.666626 14.6667V1.33333C0.666626 1.11232 0.754423 0.900358 0.910704 0.744078C1.06698 0.587797 1.27895 0.5 1.49996 0.5H7.33329C7.33329 0.942027 7.50889 1.36595 7.82145 1.67851C8.13401 1.99107 8.55793 2.16667 8.99996 2.16667C9.44199 2.16667 9.86591 1.99107 10.1785 1.67851C10.491 1.36595 10.6666 0.942027 10.6666 0.5H16.5C16.721 0.5 16.9329 0.587797 17.0892 0.744078C17.2455 0.900358 17.3333 1.11232 17.3333 1.33333V14.6667C17.3333 14.8877 17.2455 15.0996 17.0892 15.2559C16.9329 15.4122 16.721 15.5 16.5 15.5H10.6666C10.6666 15.058 10.491 14.634 10.1785 14.3215C9.86591 14.0089 9.44199 13.8333 8.99996 13.8333C8.55793 13.8333 8.13401 14.0089 7.82145 14.3215C7.50889 14.634 7.33329 15.058 7.33329 15.5ZM6.11246 13.8333C6.40495 13.3264 6.82584 12.9054 7.33274 12.6128C7.83964 12.3203 8.41468 12.1664 8.99996 12.1667C10.2333 12.1667 11.3108 12.8367 11.8875 13.8333H15.6666V2.16667H11.8875C11.595 2.67362 11.1741 3.09458 10.6672 3.38716C10.1603 3.67975 9.58524 3.83363 8.99996 3.83333C8.41468 3.83363 7.83964 3.67975 7.33274 3.38716C6.82584 3.09458 6.40495 2.67362 6.11246 2.16667H2.33329V13.8333H6.11246ZM3.99996 4.66667H5.66663V11.3333H3.99996V4.66667ZM12.3333 4.66667H14V11.3333H12.3333V4.66667Z" fill="#0064F5"/>
</svg>
