<svg width="46" height="34" viewBox="0 0 46 34" fill="none" xmlns="http://www.w3.org/2000/svg">
<g clip-path="url(#clip0)">
<path d="M26.488 11.6409C26.5021 9.34498 26.5162 7.03758 26.5021 4.74171C26.5021 4.33792 26.6714 4.13025 27.0804 3.94566C29.7602 2.75735 32.4118 1.5575 35.0776 0.357646C35.2891 0.26535 35.5712 0.230739 35.6699 0.0115356C35.9097 0.0115356 36.1354 0.0115356 36.3752 0.0115356C36.3893 1.84592 36.3893 3.68031 36.4034 5.51469C36.4034 8.95272 36.4034 12.3908 36.4034 15.8288C36.3893 17.767 36.4316 19.7052 36.3752 21.655C36.22 26.5005 33.4697 30.0309 28.1664 32.1767C23.2863 34.1496 17.024 33.3304 12.9619 30.3424C10.9591 28.8772 9.60507 27.112 8.74471 25.0469C8.56135 24.32 8.37799 23.5817 8.19464 22.8548C8.18053 19.5668 8.19464 16.2903 8.16643 13.0022C8.16643 12.5984 8.32158 12.4023 8.74471 12.2062C11.3399 11.064 13.921 9.88722 16.6573 8.65276C16.6573 11.7101 16.6573 14.6635 16.6573 17.617C16.6573 19.013 16.6431 20.3974 16.6431 21.7934C16.6431 21.978 16.6431 22.1741 16.7842 22.3472C16.7842 22.4395 16.756 22.5433 16.7842 22.6356C17.2637 24.4123 19.3794 25.7622 21.6079 25.7275C23.921 25.7045 25.952 24.3316 26.3611 22.4972C26.6149 21.3896 26.4739 20.2705 26.4598 19.163C26.5021 16.6479 26.488 14.1444 26.488 11.6409Z" fill="white"/>
<path d="M36.4035 15.8288C36.4035 12.3908 36.4035 8.95273 36.4035 5.5147C39.1679 3.8303 41.9324 2.14589 44.6827 0.473022C44.9225 0.611467 44.8238 0.784522 44.8238 0.922966C44.8238 4.79941 44.8238 8.68738 44.8238 12.5638C44.8238 12.8407 44.8379 13.0599 44.4147 13.1984C41.749 14.0521 39.0833 14.9404 36.4035 15.8288Z" fill="#D3D6D7"/>
<path d="M26.4881 11.6409C26.4881 14.1444 26.4881 16.6479 26.4881 19.1515C23.2582 20.2129 20.0283 21.2743 16.7984 22.3357C16.6432 22.1742 16.6573 21.978 16.6573 21.7819C16.6573 20.3859 16.6714 19.0015 16.6714 17.6055C19.6898 15.7596 22.7222 13.9137 25.7405 12.0677C25.9944 11.9293 26.2483 11.7909 26.4881 11.6409Z" fill="#D3D6D7"/>
<path d="M8.20941 22.8433C8.39277 23.5816 8.57613 24.3085 8.75948 25.0353C5.93861 25.9698 3.11773 26.9043 0.296857 27.8388C0.268648 27.8042 0.240439 27.758 0.212231 27.7234C2.87796 26.0967 5.54368 24.47 8.20941 22.8433Z" fill="#D3D6D7"/>
</g>
<defs>
<clipPath id="clip0">
<rect width="45.4161" height="33.8035" fill="white"/>
</clipPath>
</defs>
</svg>
