<svg width="18" height="18" viewBox="0 0 18 18" fill="none" xmlns="http://www.w3.org/2000/svg">
<path fill-rule="evenodd" clip-rule="evenodd" d="M13.1888 0.363756C14.1968 0.569205 15.1298 1.04551 15.8874 1.74148C16.645 2.43744 17.1987 3.32673 17.4888 4.31375C17.7575 5.21875 17.7975 6.17625 17.605 7.10125C17.3268 8.36856 16.6265 9.50387 15.619 10.3214C14.6114 11.1389 13.3562 11.5901 12.0587 11.6013C11.5112 11.6013 10.9662 11.5225 10.4425 11.3638L9.4425 12.5363L8.96875 12.755L7.75 12.755L7.75 14.63L7.125 15.255L5.25 15.255L5.25 17.13L4.625 17.755L0.874997 17.755L0.249997 17.13L0.249998 14.2462L0.432498 13.805L6.65 7.5875C6.47355 7.01916 6.38915 6.42625 6.4 5.83125C6.41139 4.9988 6.60629 4.17911 6.97079 3.43061C7.3353 2.68211 7.86043 2.02324 8.50877 1.50097C9.15711 0.978693 9.91268 0.605875 10.7216 0.40909C11.5306 0.212305 12.373 0.196399 13.1888 0.362506L13.1888 0.363756ZM14.8362 9.36375C15.6215 8.72789 16.1675 7.84424 16.385 6.8575L16.39 6.86375C16.5449 6.14226 16.517 5.3935 16.3089 4.68551C16.1009 3.97752 15.7192 3.33274 15.1986 2.80977C14.6779 2.28679 14.0349 1.9022 13.3279 1.69092C12.6208 1.47965 11.8722 1.4484 11.15 1.60001C10.176 1.81619 9.30228 2.35203 8.66802 3.1222C8.03376 3.89237 7.6754 4.8526 7.65 5.85C7.6375 6.42 7.7375 6.985 7.94875 7.5125L7.81125 8.19125L1.5 14.505L1.5 16.505L4 16.505L4 14.63L4.625 14.005L6.5 14.005L6.5 12.13L7.125 11.505L8.68125 11.505L9.77625 10.235L10.4775 10.06C10.983 10.2575 11.521 10.3584 12.0637 10.3575C13.0738 10.3498 14.0513 9.99939 14.8362 9.36375ZM13.7888 5.94875C13.8873 5.81257 13.9574 5.6579 13.9948 5.494C14.0322 5.3301 14.0361 5.16035 14.0064 4.99489C13.9767 4.82943 13.9139 4.67166 13.8218 4.53103C13.7297 4.3904 13.6101 4.2698 13.4703 4.17643C13.3306 4.08306 13.1734 4.01886 13.0082 3.98765C12.843 3.95644 12.6732 3.95887 12.509 3.99479C12.3447 4.03072 12.1895 4.0994 12.0524 4.19673C11.9153 4.29407 11.7993 4.41804 11.7112 4.56125C11.5419 4.83674 11.4859 5.16714 11.555 5.48305C11.6241 5.79896 11.8129 6.0758 12.0819 6.2554C12.3508 6.435 12.6788 6.5034 12.9971 6.44622C13.3154 6.38904 13.5992 6.21073 13.7888 5.94875Z" fill="white"/>
</svg>
