<svg width="14" height="18" viewBox="0 0 14 18" fill="none" xmlns="http://www.w3.org/2000/svg">
<path d="M11.1667 6.50002V4.83335C11.1667 2.50002 9.33333 0.666687 7 0.666687C4.66667 0.666687 2.83333 2.50002 2.83333 4.83335V6.50002C1.41667 6.50002 0.333332 7.58335 0.333332 9.00002V14.8334C0.333332 16.25 1.41667 17.3334 2.83333 17.3334H11.1667C12.5833 17.3334 13.6667 16.25 13.6667 14.8334V9.00002C13.6667 7.58335 12.5833 6.50002 11.1667 6.50002ZM4.5 4.83335C4.5 3.41669 5.58333 2.33335 7 2.33335C8.41667 2.33335 9.5 3.41669 9.5 4.83335V6.50002H4.5V4.83335ZM7.91667 11.9167L7.83333 12V13.1667C7.83333 13.6667 7.5 14 7 14C6.5 14 6.16667 13.6667 6.16667 13.1667V12C5.66667 11.5 5.58333 10.75 6.08333 10.25C6.58333 9.75002 7.33333 9.66669 7.83333 10.1667C8.33333 10.5834 8.41667 11.4167 7.91667 11.9167Z" fill="white"/>
</svg>
