<svg width="14" height="18" viewBox="0 0 14 18" fill="none" xmlns="http://www.w3.org/2000/svg">
<path d="M13.6667 8.99996C13.6667 8.08079 12.9192 7.33329 12 7.33329H11.1667V4.83329C11.1667 2.53579 9.29754 0.666626 7.00004 0.666626C4.70254 0.666626 2.83337 2.53579 2.83337 4.83329V7.33329H2.00004C1.08087 7.33329 0.333374 8.08079 0.333374 8.99996V15.6666C0.333374 16.5858 1.08087 17.3333 2.00004 17.3333H12C12.9192 17.3333 13.6667 16.5858 13.6667 15.6666V8.99996ZM4.50004 4.83329C4.50004 3.45496 5.62171 2.33329 7.00004 2.33329C8.37837 2.33329 9.50004 3.45496 9.50004 4.83329V7.33329H4.50004V4.83329Z" fill="white"/>
</svg>
