<svg width="125" height="17" viewBox="0 0 125 17" fill="none" xmlns="http://www.w3.org/2000/svg">
<path d="M81.2612 1.6272C81.2612 1.07491 81.7089 0.627197 82.2612 0.627197H98.8562C99.4085 0.627197 99.8562 1.07491 99.8562 1.6272V11.878C99.8562 12.4303 99.4085 12.878 98.8562 12.878H82.2612C81.7089 12.878 81.2612 12.4303 81.2612 11.878V1.6272Z" stroke="#626E9A"/>
<rect x="88.0454" y="12.8777" width="5.25035" height="2.62517" fill="#626E9A" stroke="#626E9A"/>
<rect x="114.829" y="2.3772" width="13.1259" height="9.91732" rx="1" transform="rotate(90 114.829 2.3772)" stroke="#626E9A"/>
<rect x="108.702" y="13.8986" width="2.33349" height="0.583372" rx="0.291686" fill="#626E9A"/>
<rect x="121.081" y="14.0458" width="1.45843" height="0.583372" rx="0.291686" fill="#7F83A1"/>
<rect x="119.624" y="7.33643" width="4.37529" height="8.16721" rx="1" fill="white" stroke="#626E9A"/>
<path d="M0.0163737 8.5714C-0.00869853 7.51215 0.166807 6.4529 0.793613 5.56609C1.59592 4.4083 2.72417 3.74319 4.17836 3.86636C4.70488 3.91563 5.25647 4.08807 5.75791 4.28513C6.40979 4.58074 6.98645 4.4822 7.58819 4.21123C8.3905 3.86636 9.21788 3.71856 10.0954 3.84173C11.0231 3.9649 11.8254 4.35904 12.4271 5.09805C12.5525 5.24585 12.5776 5.34438 12.377 5.44292C10.2458 6.84704 10.3712 9.95089 12.6277 11.3057C13.0539 11.5521 13.0038 11.4782 12.8534 11.897C12.377 13.0794 11.7251 14.1633 10.7974 15.0501C10.3712 15.4442 9.86976 15.6905 9.2931 15.6166C8.91701 15.5674 8.54093 15.4442 8.18992 15.2964C7.18703 14.853 6.20921 14.9515 5.25647 15.3703C4.98067 15.4935 4.67981 15.592 4.40401 15.6413C3.8775 15.7398 3.40112 15.5181 3.02504 15.1732C2.09737 14.3603 1.44549 13.375 0.918974 12.2911C0.467674 11.355 0.216952 10.3697 0.0414459 9.33505C-0.0337708 9.11334 0.0163737 8.84237 0.0163737 8.5714Z" fill="#626E9A"/>
<path d="M26.295 5.91965C27.6489 5.91965 28.9778 5.91965 30.3317 5.91965C30.6827 5.91965 30.6827 5.91965 30.6827 6.26453C30.6827 8.13669 30.6827 10.0089 30.6827 11.881C30.6827 12.0042 30.6827 12.1027 30.6576 12.2259C30.5824 12.8417 30.2564 13.1373 29.6296 13.1866C29.4792 13.2112 29.3288 13.2112 29.1783 13.2112C28.9527 13.1866 28.8775 13.2851 28.8775 13.5068C28.8775 14.0241 28.8775 14.5415 28.8775 15.0588C28.8775 15.2066 28.8524 15.379 28.8273 15.5268C28.727 15.9948 28.3259 16.3397 27.8746 16.3151C27.3731 16.2904 26.9469 15.8963 26.9218 15.379C26.8968 14.7878 26.9218 14.1966 26.9218 13.6054C26.9218 13.2359 26.9218 13.2359 26.5458 13.2359C26.3201 13.2359 26.0945 13.2359 25.8688 13.2359C25.6432 13.2359 25.593 13.3098 25.593 13.5068C25.593 14.0734 25.593 14.64 25.593 15.2312C25.593 15.8224 25.2921 16.1673 24.7155 16.2904C24.3645 16.3643 23.838 16.0441 23.7377 15.65C23.6875 15.4775 23.6625 15.2805 23.6625 15.108C23.6625 14.5661 23.6625 14.0241 23.6625 13.4576C23.6625 13.2605 23.5872 13.1866 23.3867 13.1866C23.1109 13.1866 22.81 13.1866 22.5593 13.1127C22.108 12.9895 21.8823 12.5954 21.8823 12.0534C21.8823 10.9203 21.8823 9.76251 21.8823 8.62936C21.8823 7.81645 21.8823 7.02817 21.8823 6.21526C21.8823 5.96892 21.9575 5.89502 22.2083 5.89502C23.5371 5.91965 24.9161 5.91965 26.295 5.91965Z" fill="#626E9A"/>
<path d="M41.0938 6.8155C41.2943 6.17503 41.4698 5.53455 41.6453 4.91871C41.9211 3.95799 42.222 2.97264 42.4978 2.01193C42.573 1.79022 42.6733 1.61779 42.8989 1.54389C43.7013 1.24828 44.5036 1.02658 45.356 0.977312C46.4341 0.928044 47.3869 1.27292 48.2644 1.86413C48.4148 1.96266 48.465 2.11046 48.4148 2.2829C47.9635 3.85946 47.4872 5.43601 47.0359 7.01257C46.9607 7.25891 46.8604 7.16037 46.735 7.08647C45.8825 6.49526 44.9047 6.19966 43.8517 6.22429C42.9992 6.24893 42.1969 6.47063 41.3946 6.76624C41.3194 6.79087 41.2693 6.8155 41.194 6.84014C41.169 6.84014 41.1439 6.8155 41.0938 6.8155Z" fill="#626E9A"/>
<path d="M49.3452 2.60352C51.2256 3.983 53.1812 3.7613 55.2372 2.94839C55.0867 3.44106 54.9614 3.8352 54.836 4.25397C54.5101 5.33786 54.2092 6.39711 53.8833 7.48099C53.8331 7.62879 53.808 7.80123 53.7328 7.94903C53.6827 8.04757 53.5824 8.17074 53.4821 8.22C52.404 8.63878 51.2757 8.93438 50.0974 8.78658C49.3201 8.68804 48.6181 8.34317 47.9662 7.94903C47.7907 7.8505 47.7656 7.67806 47.8158 7.50562C48.2922 5.92907 48.7435 4.35251 49.2198 2.77595C49.295 2.70205 49.3201 2.67742 49.3452 2.60352Z" fill="#626E9A"/>
<path d="M53.4314 9.10735C53.2559 9.69856 53.1305 10.1912 52.9801 10.7085C52.6541 11.7924 52.3282 12.8763 52.0273 13.9848C51.9521 14.2312 51.8267 14.379 51.5509 14.4775C50.7236 14.7731 49.8711 14.9948 48.9936 15.0194C47.9656 15.0194 47.063 14.6746 46.2356 14.1326C46.0852 14.0341 46.0351 13.9109 46.0852 13.7139C46.5365 12.2112 46.9627 10.7085 47.389 9.20588C47.414 9.08271 47.4642 8.95955 47.5394 8.78711C49.4198 10.142 51.3754 9.94489 53.4314 9.10735Z" fill="#626E9A"/>
<path d="M45.1582 13.3439C44.7822 13.1468 44.4562 12.9498 44.1052 12.802C43.0271 12.2846 41.8988 12.2846 40.7706 12.5556C40.3694 12.6542 39.9934 12.7773 39.6173 12.9005C39.5421 12.9251 39.4418 12.9251 39.3164 12.9498C39.4418 12.5064 39.5421 12.1122 39.6674 11.7181C39.9683 10.6342 40.3193 9.57494 40.5951 8.49105C40.6954 8.07228 40.8709 7.80131 41.3222 7.65351C42.1746 7.38254 43.002 7.16083 43.9046 7.18547C44.8574 7.2101 45.7098 7.57961 46.4871 8.07228C46.6375 8.17082 46.6375 8.31862 46.5874 8.46642C46.4119 9.05763 46.2614 9.67347 46.0859 10.2647C45.8101 11.2008 45.5343 12.1615 45.2585 13.0976C45.2335 13.1715 45.2084 13.2454 45.1582 13.3439Z" fill="#626E9A"/>
<path d="M23.5657 0.746582C23.6409 0.845117 23.7162 0.919018 23.7914 1.01755C23.9418 1.28852 24.0922 1.55949 24.2427 1.83047C24.3179 1.95363 24.3931 1.97827 24.5185 1.929C25.6718 1.51023 26.8251 1.51023 27.9784 1.929C28.1289 1.97827 28.2041 1.95363 28.2793 1.80583C28.4297 1.53486 28.5802 1.26389 28.7306 0.992919C28.7807 0.894384 28.881 0.820483 28.9563 0.746582C28.9813 0.771216 29.0315 0.795849 29.0565 0.795849C29.0315 0.894384 29.0064 1.01755 28.9563 1.09145C28.8309 1.36243 28.6805 1.6334 28.53 1.87973C28.4297 2.02754 28.4548 2.10144 28.6052 2.19997C29.4326 2.69265 30.0594 3.33312 30.3854 4.21994C30.5107 4.56481 30.5609 4.95895 30.6361 5.32845C30.6612 5.47626 30.5859 5.55016 30.4355 5.52552C30.3854 5.52552 30.3603 5.52552 30.3102 5.52552C27.6024 5.52552 24.8945 5.52552 22.1617 5.52552C21.7856 5.52552 21.7856 5.52552 21.8357 5.15602C21.9862 3.85043 22.7133 2.88972 23.8415 2.19997C24.017 2.10144 24.0672 2.0029 23.9418 1.83047C23.7914 1.58413 23.6409 1.33779 23.5156 1.06682C23.4654 0.968285 23.4654 0.869751 23.4404 0.771216C23.5156 0.771216 23.5407 0.746582 23.5657 0.746582ZM24.6188 3.60409C24.6188 3.40702 24.4432 3.23459 24.2427 3.25922C24.0421 3.25922 23.8917 3.43166 23.8917 3.62873C23.8917 3.8258 24.0672 3.99823 24.2677 3.99823C24.4432 3.99823 24.6188 3.80116 24.6188 3.60409ZM28.2793 3.25922C28.0787 3.25922 27.9032 3.43166 27.9032 3.62873C27.9032 3.80116 28.1038 3.99823 28.2793 3.99823C28.4548 3.99823 28.6303 3.80116 28.6303 3.60409C28.6303 3.43166 28.4548 3.25922 28.2793 3.25922Z" fill="#626E9A"/>
<path d="M31.0368 8.7036C31.0368 8.01386 31.0368 7.29948 31.0368 6.60974C31.0368 6.26486 31.2123 6.01853 31.5132 5.84609C32.0898 5.52585 32.7919 5.84609 32.9172 6.48657C32.9423 6.60974 32.9423 6.75754 32.9423 6.88071C32.9423 8.08776 32.9423 9.29481 32.9423 10.5019C32.9423 10.6743 32.9172 10.8714 32.8671 11.0438C32.7417 11.4626 32.2904 11.7089 31.814 11.635C31.3627 11.5611 31.0117 11.2409 31.0117 10.7975C31.0117 10.1077 31.0368 9.39335 31.0368 8.7036Z" fill="#626E9A"/>
<path d="M21.4792 8.67859C21.4792 9.39297 21.4792 10.0827 21.4792 10.7971C21.4792 11.1666 21.2786 11.4376 20.9527 11.5854C20.6267 11.7332 20.3008 11.7085 19.9999 11.5115C19.7743 11.3637 19.6489 11.1666 19.5988 10.8956V10.871C19.5988 9.4176 19.5737 7.96421 19.5988 6.53546C19.5988 6.04278 20.0501 5.72254 20.5515 5.74718C21.078 5.77181 21.4541 6.11668 21.4792 6.60936C21.5043 7.2991 21.4792 7.98884 21.4792 8.67859Z" fill="#626E9A"/>
<path d="M9.67015 0C9.72029 0.689744 9.59493 1.28095 9.29406 1.84753C8.84276 2.68508 8.21596 3.30092 7.23814 3.57189C6.56119 3.74433 6.4609 3.64579 6.51105 2.98068C6.58626 1.77363 7.83987 0.39414 9.06841 0.147802C9.24392 0.0985349 9.4445 0.0492674 9.67015 0Z" fill="#626E9A"/>
<path d="M74.0746 13.3555C73.6955 13.1365 73.4428 12.8202 73.3669 12.3822C73.3417 12.2606 73.3164 12.1389 73.2911 12.0173C73.2659 12.0173 73.2406 12.0173 73.19 12.0173C73.19 12.2119 73.1395 12.4066 73.1648 12.5769C73.2153 12.9905 73.3417 13.3555 73.8472 13.4771C73.9988 13.5258 74.1504 13.6231 74.2768 13.7204C74.479 13.8664 74.4537 14.0367 74.2515 14.1584C74.0746 14.28 73.8724 14.3773 73.6702 14.426C72.9626 14.645 72.3307 14.9856 71.7494 15.4479C71.345 15.7642 70.9406 15.8372 70.6121 15.6182C70.2077 15.3749 70.1824 14.9856 70.233 14.572C70.233 14.5477 70.233 14.5477 70.233 14.5233C70.3088 13.9394 70.3341 13.3555 70.1824 12.7715C70.1066 12.5039 70.1572 12.1876 70.1824 11.92C70.1824 11.8226 70.3341 11.6523 70.4352 11.6523C70.511 11.628 70.6374 11.774 70.7384 11.8713C70.7637 11.8956 70.789 11.9686 70.8143 12.0173C71.0165 12.4552 71.2692 12.5769 71.7494 12.5282C72.2296 12.4796 73.1142 11.6523 73.19 11.19C73.2153 11.0441 73.2406 10.8737 73.2153 10.7278C73.0637 9.38957 72.6087 8.14871 71.6736 7.10249C70.7132 6.05627 70.233 4.86407 70.2835 3.47723C70.3341 1.9444 69.4242 0.87385 67.8572 0.630543C66.5682 0.435898 65.3804 1.14149 65.3551 2.47967C65.3298 3.25825 65.3045 4.06116 65.4056 4.83974C65.4815 5.54533 65.3804 6.12926 64.9002 6.66454C64.7485 6.83485 64.6221 7.0295 64.4958 7.19981C64.2178 7.61343 63.9397 8.00272 63.7375 8.41634C63.409 9.04894 63.1562 9.70587 62.8782 10.3628C62.8277 10.4844 62.7771 10.6061 62.7519 10.7278C62.7266 10.9467 62.676 11.1657 62.8277 11.3847C63.2321 11.2387 63.409 11.2874 63.7375 11.5793C63.8639 11.701 63.9903 11.7983 64.0914 11.9443C64.5463 12.5525 64.976 13.1851 65.4056 13.8177C65.6584 14.1584 65.81 14.5477 65.8353 14.9856C65.8606 15.3506 65.6836 15.5939 65.3298 15.6912C65.1276 15.7399 64.8749 15.7642 64.6727 15.7399C63.6112 15.5209 62.5749 15.2776 61.5387 15.0343C61.2101 14.9613 61.109 14.8153 61.2607 14.5233C61.4882 14.0854 61.4629 13.6718 61.2607 13.2338C61.0585 12.8688 61.1849 12.7229 61.6145 12.7472C61.7156 12.7472 61.8167 12.7472 61.9178 12.7472C62.4991 12.6985 62.7771 12.3336 62.6508 11.7983C62.4486 12.3336 62.2464 12.4796 61.6398 12.5282C61.5893 12.5282 61.5387 12.5282 61.5134 12.5282C61.0079 12.5769 60.9069 12.6985 61.0332 13.1365C61.1596 13.6231 61.1596 14.061 60.9827 14.5233C60.831 14.9369 60.9574 15.1316 61.3871 15.2289C61.7662 15.3262 62.1706 15.3749 62.5749 15.4722C63.2068 15.6425 63.8386 15.8129 64.4452 16.0318C64.976 16.2021 65.4309 16.1292 65.8858 15.7885C66.1386 15.6182 66.4671 15.4722 66.7704 15.4479C67.655 15.3992 68.5396 15.3992 69.4495 15.3992C69.6011 15.3992 69.8033 15.4722 69.8791 15.5939C70.0561 15.8858 70.3088 16.0805 70.6374 16.1778H71.4461C71.5978 16.0805 71.7494 15.9832 71.9011 15.8615C72.4571 15.3749 73.0637 15.0099 73.7461 14.6936C73.8724 14.645 73.9988 14.572 74.1252 14.499C74.8076 14.1097 74.8076 13.7934 74.0746 13.3555ZM69.6769 5.30202C69.8286 5.39935 69.9802 5.44801 70.1066 5.54533C70.1824 5.59399 70.1824 5.73997 70.2077 5.81297C70.1066 5.8373 70.0055 5.88596 69.9297 5.86163C69.6769 5.73997 69.5758 5.47234 69.6769 5.30202ZM68.6407 1.60377C68.6407 1.57944 68.7923 1.55511 68.8429 1.57944C68.9693 1.6281 69.0451 1.72542 69.1715 1.82274C68.944 1.89574 68.7418 1.99306 68.5396 2.06605C68.5649 1.89574 68.5902 1.74975 68.6407 1.60377ZM70.0308 13.1365C70.1066 13.5988 70.0813 14.0367 69.9802 14.4747C69.9297 14.718 69.8791 14.9613 69.8539 15.1803C69.6011 15.1803 69.5506 15.1073 69.6264 14.8396C69.7022 14.572 69.8033 14.3044 69.8539 14.0124C69.8791 13.8421 69.8539 13.6718 69.8539 13.4771C69.8286 13.4771 69.8033 13.4771 69.778 13.4771C69.5253 13.6961 69.3231 13.9881 69.0451 14.1584C68.7671 14.3287 68.4132 14.426 68.0847 14.4747C67.7561 14.5233 67.377 14.499 67.0232 14.5233C66.6946 14.5233 66.4924 14.134 66.1639 14.207C66.2649 14.5477 66.366 14.8396 66.4419 15.1316C66.4419 15.1803 66.3408 15.2776 66.2397 15.3506C66.2649 14.791 65.9869 14.3287 65.6331 13.9394C65.7595 13.8664 65.9111 13.8177 65.9869 13.7448C66.2397 13.5014 66.1891 13.1365 65.8606 12.8932C65.3551 12.5039 64.8749 12.0903 64.3441 11.701C63.7881 11.2874 63.4595 10.7764 63.5606 10.0708C63.5859 9.92484 63.6364 9.80319 63.7123 9.6572C63.7123 10.2168 63.6112 10.8007 64.243 11.19C64.2683 11.0197 64.3188 10.8737 64.3188 10.7034C64.243 9.77886 64.5716 8.97595 65.0771 8.19737C65.2034 8.00272 65.254 7.85674 65.2287 7.61343C65.2034 7.37013 65.3551 7.10249 65.4562 6.85918C65.5825 6.51855 65.7595 6.20226 65.9111 5.86163C66.0122 5.98328 66.1386 6.15359 66.2649 6.29958C66.6441 6.78619 66.821 6.81052 67.377 6.46989C67.7814 6.22659 68.1605 5.98328 68.5649 5.73997C68.6154 5.71564 68.6407 5.61832 68.6913 5.56966C68.6154 5.56966 68.5143 5.521 68.4638 5.54533C68.1099 5.69131 67.8067 5.88596 67.4528 6.03194C66.9473 6.22659 66.5682 6.12926 66.2649 5.71564C67.1748 5.93462 67.8572 5.42368 68.6154 5.18037C68.6913 5.15604 68.7418 5.08305 68.7924 5.03439L68.7418 4.93706C68.666 4.96139 68.5902 4.98573 68.5396 5.03439C68.0847 5.37502 67.5286 5.42368 66.9979 5.54533C66.4419 5.66698 66.088 5.35068 65.7595 5.01006C65.6078 4.83974 65.7847 4.71809 65.9111 4.59644C65.9364 4.5721 65.9869 4.52344 66.0375 4.49911V4.40179C65.9869 4.40179 65.9364 4.37746 65.8858 4.30447C65.6331 3.96384 65.6836 3.33124 65.9617 3.03927C66.1386 2.84463 66.366 2.84463 66.5177 3.03927C66.6441 3.20959 66.7199 3.42857 66.7957 3.64754C66.9221 4.03683 66.5935 4.30447 66.6188 4.42612C66.8715 4.30447 67.6297 4.25581 67.9078 4.42612C67.9078 4.25581 67.4276 4.06116 67.5034 3.55022C67.5539 3.20959 67.7561 2.94195 68.0847 2.86896C68.4132 2.79597 68.7671 2.89329 68.8934 3.20959C69.0198 3.50156 69.0451 3.84219 69.0956 4.15848C69.0956 4.23148 69.0198 4.25581 68.944 4.23148L68.8176 4.69376C68.9693 4.81541 69.0704 4.91273 69.0451 5.03439C68.8682 5.54533 69.0198 5.93462 69.3231 6.34824C69.5758 6.68887 69.6517 7.12682 69.8033 7.51611C69.8286 7.5891 69.8286 7.66209 69.8791 7.71076C70.4352 8.31902 70.5363 9.04894 70.6121 9.77886C70.6374 10.0222 70.6374 10.2898 70.6626 10.5331C70.6626 10.7034 70.7132 10.8737 70.9406 10.8737C71.1681 10.8737 71.3956 10.8251 71.4461 10.6061C71.4967 10.2411 71.5725 9.87618 71.5219 9.53555C71.4208 8.7813 71.067 8.12438 70.6374 7.49178C71.1176 7.88107 71.4209 8.34335 71.5725 8.92729C71.6989 9.48689 71.8505 10.0708 71.623 10.6304C71.5978 10.6791 71.6736 10.7764 71.7241 10.8007C71.8252 10.8737 71.9263 10.9224 72.0022 10.9711C71.6989 10.9711 71.3956 10.9224 71.0923 10.9467C70.8648 10.9711 70.6879 11.0927 70.5868 11.336C70.5615 11.3847 70.4857 11.4577 70.4099 11.482C70.1066 11.5793 69.9044 11.7983 69.9044 12.1146C69.9802 12.4796 69.9802 12.8202 70.0308 13.1365Z" fill="#626E9A"/>
<rect x="120.892" y="13.9821" width="1.90672" height="0.635572" rx="0.317786" fill="#626E9A"/>
</svg>
