<svg width="16" height="18" viewBox="0 0 16 18" fill="none" xmlns="http://www.w3.org/2000/svg">
<path d="M4.88232 2.33348V12.3335C4.88232 12.7755 5.06358 13.1994 5.38623 13.512C5.70887 13.8245 6.14647 14.0001 6.60275 14.0001H13.4845C13.9408 14.0001 14.3784 13.8245 14.701 13.512C15.0236 13.1994 15.2049 12.7755 15.2049 12.3335V5.03514C15.2049 4.81311 15.1591 4.59332 15.0701 4.38868C14.9812 4.18404 14.851 3.99868 14.6871 3.84348L11.8354 1.14181C11.514 0.837357 11.0824 0.666863 10.6329 0.666809H6.60275C6.14647 0.666809 5.70887 0.842404 5.38623 1.15496C5.06358 1.46753 4.88232 1.89145 4.88232 2.33348V2.33348Z" stroke="white" stroke-linecap="round" stroke-linejoin="round"/>
<path d="M11.7637 14.0003V15.6669C11.7637 16.109 11.5825 16.5329 11.2598 16.8455C10.9372 17.158 10.4996 17.3336 10.0433 17.3336H3.16159C2.70531 17.3336 2.26771 17.158 1.94506 16.8455C1.62242 16.5329 1.44116 16.109 1.44116 15.6669V6.50028C1.44116 6.05826 1.62242 5.63433 1.94506 5.32177C2.26771 5.00921 2.70531 4.83362 3.16159 4.83362H4.88202" stroke="white" stroke-linecap="round" stroke-linejoin="round"/>
</svg>
