<svg width="16" height="20" viewBox="0 0 16 20" fill="none" xmlns="http://www.w3.org/2000/svg">
<path d="M10.157 1V4.8954C10.157 5.15368 10.2642 5.40138 10.455 5.58402C10.6458 5.76665 10.9046 5.86925 11.1744 5.86925H15.2442" stroke="white" stroke-linecap="round" stroke-linejoin="round"/>
<path d="M13.2092 18.5293H3.03487C2.49519 18.5293 1.97761 18.3241 1.596 17.9588C1.21439 17.5936 1 17.0982 1 16.5816V2.9477C1 2.43114 1.21439 1.93573 1.596 1.57047C1.97761 1.2052 2.49519 1 3.03487 1H10.1569L15.2441 5.86925V16.5816C15.2441 17.0982 15.0297 17.5936 14.6481 17.9588C14.2665 18.3241 13.7489 18.5293 13.2092 18.5293Z" stroke="white" stroke-linecap="round" stroke-linejoin="round"/>
<path d="M8.12231 8.79089V14.634" stroke="white" stroke-linecap="round" stroke-linejoin="round"/>
<path d="M5.07031 11.7118L8.12262 14.6333L11.1749 11.7118" stroke="white" stroke-linecap="round" stroke-linejoin="round"/>
</svg>
