<svg width="60" height="30" viewBox="0 0 60 30" fill="none" xmlns="http://www.w3.org/2000/svg">
<g clip-path="url(#clip0)">
<path d="M33.951 23.5833C33.9906 22.9879 33.6737 22.0618 33.3567 21.1687C33.1587 20.5072 32.406 19.8457 32.2079 19.3495C31.8513 18.5226 32.0098 17.9273 31.9702 16.7696C32.1286 17.828 32.1286 18.7542 32.4456 19.1841C32.7229 19.6141 33.1983 20.2095 33.4756 20.8049C33.9906 21.8964 34.3075 23.0871 34.3471 23.6494C34.3867 24.6086 34.2283 26.1301 33.8321 27.2878C33.6737 27.7178 33.4756 28.1147 33.2379 28.4785C33.7529 27.8501 34.1094 27.1555 34.2679 26.5932C34.7829 24.5756 35.2187 22.4256 34.8621 21.1687C34.7829 20.871 34.6641 19.9118 34.1887 18.8203C33.4756 17.2988 32.5248 16.0088 32.406 15.7112C32.0494 14.8512 31.9306 12.7012 31.8909 11.5436C31.9306 12.9328 32.2475 14.9504 32.4852 15.4135C32.604 15.7112 33.6737 17.1334 34.4264 18.6219C34.9414 19.6141 35.0602 20.5072 35.1395 20.7718C35.5356 23.5502 35.1791 24.7079 34.3471 27.1886C34.2283 27.5524 34.0302 27.8832 33.8321 28.2139C34.4264 27.6185 34.8621 26.9901 35.0206 26.4609C35.8922 23.3517 36.1695 19.3826 34.981 16.3727C34.3868 14.785 32.921 13.3958 32.5644 12.4366C32.1683 11.312 32.4456 9.49286 32.4456 9.45978L29.2367 8.26904C30.0686 10.0552 30.2271 11.4443 29.3555 12.0397C25.9882 14.355 20.3627 16.9681 20.3627 20.871C20.3627 25.0055 23.2943 29.4708 30.8609 29.8016C29.9498 29.6031 29.0782 29.3716 28.3255 29.107C27.5728 28.8424 26.8993 28.4785 26.3843 27.9824C26.3843 27.9493 26.1862 27.817 26.1862 27.817C25.077 26.7586 23.6904 24.9725 23.215 23.2856C23.017 22.6241 22.8585 22.0948 23.0962 21.4002C24.0074 18.688 25.9882 17.5965 27.969 16.4719C28.4047 16.2404 28.9594 16.0088 29.3951 15.7112C30.2271 15.215 30.6628 13.6274 31.1382 12.3705C30.9005 13.3958 30.6232 15.2481 29.5536 15.9427C29.1178 16.2073 28.6424 16.4719 28.167 16.7365C26.2655 17.828 24.3243 18.8534 23.4527 21.4664C23.2547 22.0287 23.4131 22.6241 23.5716 23.1864C24.047 24.8071 25.3939 26.527 26.4636 27.5524C26.4636 27.5855 26.6616 27.7178 26.6616 27.7509C27.3747 28.4455 27.6916 28.7431 29.5536 29.1731C29.1178 28.9747 28.7613 28.7431 28.4444 28.5778C26.5428 27.4862 25.592 26.1301 25.4335 24.1125C25.3147 22.5579 26.4636 20.9041 28.7217 19.9118C30.2667 19.2503 30.7025 18.1919 31.2175 16.935C30.8609 18.3572 30.5044 19.2503 28.8801 20.0441C26.9786 20.9703 25.6316 22.7564 25.7505 23.9802C25.9089 25.4686 27.1766 27.1886 28.5632 28.2139C29.1574 28.6439 30.0686 28.9085 30.9402 29.107C30.7025 28.9416 30.4648 28.7431 30.2271 28.4785C29.9498 28.1478 29.7517 27.6847 29.5536 27.2547C29.3555 26.8247 29.1574 26.3947 29.1574 25.9978C29.1574 25.0386 29.2763 23.8479 30.1082 23.054C30.8609 22.3264 31.0986 22.2271 31.4156 21.3672C31.1779 22.3595 31.0194 22.4256 30.3063 23.2525C29.3951 24.3109 29.3555 25.3694 29.4744 26.0309C29.5536 26.4609 29.7517 26.8578 29.9101 27.1886C30.1082 27.6185 30.3459 28.0155 30.6628 28.3793C30.9402 28.6439 31.059 28.8424 31.4948 28.9747C31.9306 28.3131 32.2079 26.924 32.2475 26.1301C32.2871 25.4686 32.3267 24.7079 32.2079 23.9471C32.0494 22.9217 31.6532 21.9295 31.6532 21.1356C31.8513 21.8633 32.2871 22.8556 32.5644 23.881C32.7625 24.6748 32.8021 25.4686 32.7229 26.0309C32.6436 26.7255 32.604 27.2878 32.4852 27.8832C32.406 28.2801 32.1683 28.677 31.8117 29.0408C32.6833 28.4785 33.2379 27.6185 33.4756 26.5932C33.9114 25.4686 33.951 24.2448 33.951 23.5833Z" fill="white"/>
<path d="M41.993 17.6627C40.7649 15.7773 37.6353 13.9251 34.3472 12.2051C33.5945 11.8413 33.436 10.4521 33.5548 9.85671L32.8021 9.55902C32.8021 9.55902 32.5248 11.2128 33.0398 12.5359C33.3964 13.462 34.5849 14.5204 35.2979 16.0089C35.813 17.0011 36.328 19.3826 36.3676 19.6472C36.7637 22.4256 36.5657 25.0386 35.5753 27.2547C35.1395 28.2801 34.1887 29.2062 33.436 29.6362C33.3172 29.7023 33.1983 29.7685 33.0795 29.8347C39.3388 30 46.2319 24.0794 41.993 17.6627Z" fill="white"/>
<path d="M40.6855 1.42227C38.1105 2.14994 35.8127 3.27453 34.1093 5.29217C35.1393 3.53914 36.7635 1.78611 38.5859 0C36.0901 1.48842 33.9508 3.1753 32.5642 5.42448L33.515 2.24917C32.0492 4.43219 31.0588 6.68137 30.7419 8.89746L32.4058 9.49283C34.545 6.74752 37.2785 4.0022 40.6855 1.42227Z" fill="white"/>
<path d="M24.4034 9.45977V4.1676C24.4034 3.473 23.6904 2.91071 22.898 2.91071H1.50541C0.673472 2.91071 0 3.473 0 4.1676V9.45977C0 10.1544 0.673472 10.7167 1.50541 10.7167H6.33856C6.77433 10.7167 7.36857 11.0143 7.36857 11.5766V29.0077C7.36857 29.6031 7.88358 30.0331 8.55705 30.0331H15.8464C16.5199 30.0331 17.0745 29.6031 17.0745 29.0077V11.7089C17.0745 11.1797 17.5103 10.7167 18.5007 10.7167H22.898C23.73 10.6836 24.4034 10.1213 24.4034 9.45977Z" fill="white"/>
<path d="M59.622 16.6042V10.9481C59.622 10.3859 59.0674 9.92279 58.3543 9.92279H56.4527C56.215 9.92279 55.6208 9.95587 55.4623 9.95587C50.6688 10.3528 46.8656 13.5942 46.5091 17.6295C46.4695 17.7949 46.4695 18.0595 46.4695 18.258V29.14C46.4695 29.57 46.9845 29.9669 47.5787 29.9669H54.3927C54.9869 29.9669 55.5019 29.6031 55.5019 29.14V19.581C55.5019 18.5556 56.4527 17.6295 58.5523 17.6295C59.6616 17.6295 59.622 17.3318 59.622 16.6042Z" fill="white"/>
</g>
<defs>
<clipPath id="clip0">
<rect width="59.6221" height="30" fill="white"/>
</clipPath>
</defs>
</svg>
