<svg width="11" height="13" viewBox="0 0 11 13" fill="none" xmlns="http://www.w3.org/2000/svg">
<path fill-rule="evenodd" clip-rule="evenodd" d="M0 2.96124C0 2.19648 0.504955 1.51751 1.25358 1.27567L4.92025 0.0911769C5.29657 -0.0303921 5.70343 -0.0303924 6.07975 0.0911766L9.74642 1.27567C10.495 1.51751 11 2.19648 11 2.96124V6.1225C11 9.38106 7.6021 11.359 6.14782 12.0563C5.73679 12.2534 5.2632 12.2534 4.85218 12.0563C3.3979 11.359 0 9.38106 0 6.1225V2.96124Z" fill="white"/>
<path fill-rule="evenodd" clip-rule="evenodd" d="M7.85247 4.16815C8.10031 4.39236 8.10031 4.75587 7.85247 4.98007L5.67301 6.95176C5.22691 7.35533 4.50364 7.35533 4.05754 6.95176L3.1473 6.1283C2.89947 5.9041 2.89947 5.54059 3.1473 5.31638C3.39513 5.09218 3.79695 5.09218 4.04478 5.31638L4.86527 6.05865L6.95499 4.16815C7.20283 3.94395 7.60464 3.94395 7.85247 4.16815Z" fill="#0049FF"/>
</svg>
